<svg xmlns="http://www.w3.org/2000/svg" version="1.1" xmlns:xlink="http://www.w3.org/1999/xlink" xmlns:svgjs="http://svgjs.dev/svgjs" width="2000" height="1247" viewBox="0 0 2000 1247"><g transform="matrix(1,0,0,1,-1.2121212121212466,0.5057905809262593)"><svg viewBox="0 0 396 247" data-background-color="#ffffff" preserveAspectRatio="xMidYMid meet" height="1247" width="2000" xmlns="http://www.w3.org/2000/svg" xmlns:xlink="http://www.w3.org/1999/xlink"><g id="tight-bounds" transform="matrix(1,0,0,1,0.2400000000000091,-0.09997365579206985)"><svg viewBox="0 0 395.52 247.2" height="247.2" width="395.52"><g><svg viewBox="0 0 395.52 247.2" height="247.2" width="395.52"><g transform="matrix(1,0,0,1,76.6999221098141,0)"><svg viewBox="0 0 242.1201557803718 247.2" height="247.2" width="242.1201557803718"><g><svg viewBox="0 0 242.1201557803718 247.2" height="247.2" width="242.1201557803718"><g><svg viewBox="0 0 242.1201557803718 247.2" height="247.2" width="242.1201557803718"><g><svg viewBox="0 0 242.1201557803718 247.2" height="247.2" width="242.1201557803718"><g><svg viewBox="0 0 242.1201557803718 247.2" height="247.2" width="242.1201557803718"><path d="M241.553 53.02C240.415 27.36 237.171 20.227 237.171 20.227 227.211-6.202 214.781-0.506 203.615 3.292 183.9 3.446 164.266 9.091 144.596 12.119 103.312 12.581 61.674 4.986 20.595 23.717 16.736 29.464-4.003 24.846 0.686 56.304 1.916 69.39 6.4 83.913 6.264 95.922 6.878 98.026 7.732 93.202 8.096 96.23 9.371 104.39 11.454 100.541 13.162 105.365 10.783 118.246 12.49 128.971 14.118 140.21 11.249 143.135 7.573 141.749 5.922 151.449 5.752 158.479 4.83 157.145 3.817 156.837 3.077 156.632 1.586 157.402 1.836 159.608 2.69 167.152-0.975 171.514 1.324 178.904-0.258 186.91 2.417 193.838 2.052 202.511 2.007 204.255 2.257 205.744 2.656 206.154 4.42 208.361 1.847 212.672 2.121 217.342 20.219 249.262 39.854 227.195 58.396 241.872 63.211 231.608 59.591 245.516 61.515 243.36 63.017 240.846 64.11 251.263 65.806 245.362 66.068 243.668 65.67 239.665 66.603 240.435 67.092 240.846 67.525 240.743 67.593 238.382 67.696 234.841 66.796 237.048 66.557 235.201 69.141 225.861 68.504 248.081 70.928 247.158 70.814 244.438 70.109 240.538 71.554 241.051 72.989 237.151 73.034 233.918 74.309 242.693 74.354 244.592 74.582 245.926 74.946 246.85 78.93 237.305 82.891 250.237 87.069 245.926 89.63 241.205 92.089 248.492 94.684 246.696 95.594 245.259 96.516 242.693 97.393 247.004 108.127 247.928 119.566 244.079 129.742 247.158 156.935 241.41 185.995 249.518 214.668 241.923 221.429 238.998 228.452 234.841 235.042 231.506 235.042 231.506 240.381 222.371 240.381 181.316S241.519 145.393 241.69 112.703C241.861 80.013 242.657 78.679 241.519 53.02Z" opacity="1" fill="#804dee" data-fill-palette-color="tertiary"></path><g transform="matrix(1,0,0,1,55.76832,26.230666666666668)"><svg width="130.58351578037178" viewBox="1.35 -37.5 25.85 38.55" height="194.73866666666666" data-palette-color="#ffffff"><path d="M7.6-28.55L7.6-28.55Q7.6-32.4 10.93-34.95 14.25-37.5 19.15-37.5L19.15-37.5Q22.95-37.5 25.08-35.95 27.2-34.4 27.2-31.5L27.2-31.5Q27.2-29.25 26.08-27.85 24.95-26.45 23.1-26.45L23.1-26.45Q22.4-26.45 21.83-26.7 21.25-26.95 20.8-27.5L20.8-27.5Q21.8-28.1 22.43-29.3 23.05-30.5 23.05-31.8L23.05-31.8Q23.05-33.4 22.1-34.27 21.15-35.15 19.35-35.15L19.35-35.15Q17.2-35.15 15.98-33.95 14.75-32.75 14.75-30.6L14.75-30.6Q14.75-28.85 15.65-27.28 16.55-25.7 19.55-23.05L19.55-23.05Q23.5-19.6 24.75-17.07 26-14.55 26-11.45L26-11.45Q26-5.75 22.05-2.35 18.1 1.05 11.95 1.05L11.95 1.05Q7.05 1.05 4.2-1.2 1.35-3.45 1.35-7.55L1.35-7.55Q1.35-11.15 3.5-13.45 5.65-15.75 8.7-15.75L8.7-15.75Q10.6-15.75 11.8-14.88 13-14 13.1-12.45L13.1-12.45Q10.5-12.45 8.88-11.2 7.25-9.95 7.25-7.75L7.25-7.75Q7.25-5.65 8.55-4.3 9.85-2.95 12.05-2.95L12.05-2.95Q14.65-2.95 16.25-4.75 17.85-6.55 17.85-9.6L17.85-9.6Q17.85-11.95 16.8-14.1 15.75-16.25 12.45-19.85L12.45-19.85Q9.45-23.05 8.53-24.88 7.6-26.7 7.6-28.55Z" opacity="1" transform="matrix(1,0,0,1,0,0)" fill="#ffffff" class="undefined-text-0" data-fill-palette-color="quaternary" id="text-0"></path></svg></g></svg></g></svg></g></svg></g><g></g></svg></g></svg></g></svg></g><defs></defs></svg><rect width="395.52" height="247.2" fill="none" stroke="none" visibility="hidden"></rect></g></svg></g></svg>